<svg width="35" height="35" viewBox="0 0 35 35" fill="none" xmlns="http://www.w3.org/2000/svg">
<g clip-path="url(#clip0_322_1437)">
<path d="M0.751953 28.4515V24.5202C0.751953 23.7175 0.951827 22.9737 1.35158 22.289C1.75132 21.6043 2.30392 21.0848 3.00936 20.7307C3.33856 20.5654 3.65601 20.4119 3.9617 20.2702C4.2909 20.1286 4.63186 19.9987 4.98458 19.8807V28.4515H0.751953ZM6.39546 18.5348C5.21973 18.5348 4.22036 18.1216 3.39735 17.2952C2.57434 16.4689 2.16283 15.4654 2.16283 14.2848C2.16283 13.1043 2.57434 12.1008 3.39735 11.2744C4.22036 10.448 5.21973 10.0348 6.39546 10.0348C7.57119 10.0348 8.57056 10.448 9.39357 11.2744C10.2166 12.1008 10.6281 13.1043 10.6281 14.2848C10.6281 15.4654 10.2166 16.4689 9.39357 17.2952C8.57056 18.1216 7.57119 18.5348 6.39546 18.5348ZM6.39546 15.7015C6.79521 15.7015 7.12441 15.5716 7.38307 15.3119C7.66525 15.0286 7.80634 14.6862 7.80634 14.2848C7.80634 13.8834 7.66525 13.5529 7.38307 13.2932C7.12441 13.0098 6.79521 12.8682 6.39546 12.8682C5.99571 12.8682 5.65475 13.0098 5.37257 13.2932C5.11391 13.5529 4.98458 13.8834 4.98458 14.2848C4.98458 14.6862 5.11391 15.0286 5.37257 15.3119C5.65475 15.5716 5.99571 15.7015 6.39546 15.7015ZM6.39546 28.4515V24.4848C6.39546 23.682 6.59533 22.9501 6.99508 22.289C7.41834 21.6043 7.97094 21.0848 8.65286 20.7307C10.1108 19.9987 11.5922 19.4557 13.0971 19.1015C14.6021 18.7237 16.1305 18.5348 17.6825 18.5348C19.2344 18.5348 20.7629 18.7237 22.2678 19.1015C23.7728 19.4557 25.2542 19.9987 26.7121 20.7307C27.394 21.0848 27.9348 21.6043 28.3346 22.289C28.7579 22.9501 28.9695 23.682 28.9695 24.4848V28.4515H6.39546ZM9.21721 25.6182H26.1477V24.4848C26.1477 24.2251 26.0772 23.989 25.9361 23.7765C25.8185 23.564 25.6539 23.3987 25.4423 23.2807C24.1725 22.6432 22.891 22.1709 21.5977 21.864C20.3043 21.5334 18.9993 21.3682 17.6825 21.3682C16.3657 21.3682 15.0606 21.5334 13.7673 21.864C12.474 22.1709 11.1924 22.6432 9.92265 23.2807C9.71102 23.3987 9.53466 23.564 9.39357 23.7765C9.276 23.989 9.21721 24.2251 9.21721 24.4848V25.6182ZM17.6825 17.1182C16.1305 17.1182 14.8019 16.5633 13.6967 15.4536C12.5916 14.3438 12.039 13.0098 12.039 11.4515C12.039 9.89315 12.5916 8.55913 13.6967 7.4494C14.8019 6.33968 16.1305 5.78482 17.6825 5.78482C19.2344 5.78482 20.563 6.33968 21.6682 7.4494C22.7734 8.55913 23.326 9.89315 23.326 11.4515C23.326 13.0098 22.7734 14.3438 21.6682 15.4536C20.563 16.5633 19.2344 17.1182 17.6825 17.1182ZM17.6825 14.2848C18.4585 14.2848 19.1169 14.0133 19.6577 13.4702C20.222 12.9036 20.5042 12.2307 20.5042 11.4515C20.5042 10.6723 20.222 10.0112 19.6577 9.46815C19.1169 8.90149 18.4585 8.61815 17.6825 8.61815C16.9065 8.61815 16.2363 8.90149 15.672 9.46815C15.1311 10.0112 14.8607 10.6723 14.8607 11.4515C14.8607 12.2307 15.1311 12.9036 15.672 13.4702C16.2363 14.0133 16.9065 14.2848 17.6825 14.2848ZM28.9695 18.5348C27.7938 18.5348 26.7944 18.1216 25.9714 17.2952C25.1484 16.4689 24.7369 15.4654 24.7369 14.2848C24.7369 13.1043 25.1484 12.1008 25.9714 11.2744C26.7944 10.448 27.7938 10.0348 28.9695 10.0348C30.1452 10.0348 31.1446 10.448 31.9676 11.2744C32.7906 12.1008 33.2021 13.1043 33.2021 14.2848C33.2021 15.4654 32.7906 16.4689 31.9676 17.2952C31.1446 18.1216 30.1452 18.5348 28.9695 18.5348ZM28.9695 15.7015C29.3692 15.7015 29.6984 15.5716 29.9571 15.3119C30.2393 15.0286 30.3804 14.6862 30.3804 14.2848C30.3804 13.8834 30.2393 13.5529 29.9571 13.2932C29.6984 13.0098 29.3692 12.8682 28.9695 12.8682C28.5697 12.8682 28.2288 13.0098 27.9466 13.2932C27.6879 13.5529 27.5586 13.8834 27.5586 14.2848C27.5586 14.6862 27.6879 15.0286 27.9466 15.3119C28.2288 15.5716 28.5697 15.7015 28.9695 15.7015ZM30.3804 28.4515V19.8807C30.7331 19.9987 31.0623 20.1286 31.368 20.2702C31.6972 20.4119 32.0264 20.5654 32.3556 20.7307C33.061 21.0848 33.6136 21.6043 34.0134 22.289C34.4131 22.9737 34.613 23.7175 34.613 24.5202V28.4515H30.3804Z" fill="#1D1B20"/>
</g>
<defs>
<clipPath id="clip0_322_1437">
<rect width="33.861" height="34" fill="white" transform="translate(0.751953 0.118164)"/>
</clipPath>
</defs>
</svg>
