<svg width="35" height="35" viewBox="0 0 35 35" fill="none" xmlns="http://www.w3.org/2000/svg">
<path d="M10.6279 15.7015V10.0348C10.6279 8.15622 11.3711 6.35455 12.6941 5.02617C14.017 3.69779 15.8113 2.95151 17.6823 2.95151C19.5532 2.95151 21.3475 3.69779 22.6705 5.02617C23.9934 6.35455 24.7366 8.15622 24.7366 10.0348V15.7015M7.80613 15.7015H27.5584C29.1168 15.7015 30.3802 16.97 30.3802 18.5348V28.4515C30.3802 30.0163 29.1168 31.2848 27.5584 31.2848H7.80613C6.24772 31.2848 4.98438 30.0163 4.98438 28.4515V18.5348C4.98438 16.97 6.24772 15.7015 7.80613 15.7015Z" stroke="#1E1E1E" stroke-width="3" stroke-linecap="round" stroke-linejoin="round"/>
</svg>
