<svg width="217" height="64" viewBox="0 0 217 64" fill="none" xmlns="http://www.w3.org/2000/svg">
<ellipse cx="31.3818" cy="28.6891" rx="30.9501" ry="28.5709" fill="#7E57C2"/>
<ellipse cx="22.4615" cy="24.1916" rx="22.4615" ry="24.1916" transform="matrix(0.982154 -0.18808 0.186599 0.982436 39.3691 15.5847)" fill="#263238"/>
<g filter="url(#filter0_b_322_1429)">
<mask id="path-3-outside-1_322_1429" maskUnits="userSpaceOnUse" x="34.4141" y="16.1256" width="159" height="27" fill="black">
<rect fill="white" x="34.4141" y="16.1256" width="159" height="27"/>
<path d="M35.976 39.1256C35.7093 39.1256 35.576 38.9923 35.576 38.7256V18.1976C35.576 17.931 35.7093 17.7976 35.976 17.7976H45.352C45.608 17.7976 45.8213 17.883 45.992 18.0536L49.192 21.2536C49.3733 21.435 49.464 21.6483 49.464 21.8936V28.6136C49.464 28.8696 49.3733 29.083 49.192 29.2536L45.992 32.4536C45.8213 32.635 45.608 32.7256 45.352 32.7256H41.592V38.7256C41.592 38.9923 41.4587 39.1256 41.192 39.1256H35.976ZM42.376 27.2376C43.0267 27.2376 43.5013 27.083 43.8 26.7736C44.0987 26.4536 44.248 25.947 44.248 25.2536C44.248 24.5603 44.0987 24.059 43.8 23.7496C43.5013 23.4296 43.0267 23.2696 42.376 23.2696C41.7253 23.2696 41.2507 23.4296 40.952 23.7496C40.664 24.059 40.52 24.5603 40.52 25.2536C40.52 25.947 40.664 26.4536 40.952 26.7736C41.2507 27.083 41.7253 27.2376 42.376 27.2376ZM51.8198 39.1256C51.5531 39.1256 51.4198 38.9923 51.4198 38.7256V18.1976C51.4198 17.931 51.5531 17.7976 51.8198 17.7976H61.0518C61.3184 17.7976 61.5318 17.867 61.6918 18.0056L65.3718 21.6536C65.4891 21.7603 65.5638 21.851 65.5958 21.9256C65.6278 22.0003 65.6438 22.123 65.6438 22.2936V26.6776C65.6438 26.8163 65.5691 26.9603 65.4198 27.1096L63.4358 29.0776L62.5238 29.8616L63.8998 31.7496L65.8038 35.6056C65.8464 35.7016 65.8784 35.7976 65.8998 35.8936C65.9211 35.979 65.9318 36.091 65.9318 36.2296V38.7256C65.9318 38.9923 65.7984 39.1256 65.5318 39.1256H60.8758C60.6411 39.1256 60.4811 39.019 60.3958 38.8056L58.0278 32.2776H57.3078V38.7256C57.3078 38.9923 57.1744 39.1256 56.9078 39.1256H51.8198ZM58.5238 26.9336C59.1851 26.9336 59.6598 26.7736 59.9478 26.4536C60.2464 26.123 60.3958 25.6056 60.3958 24.9016C60.3958 24.187 60.2464 23.6696 59.9478 23.3496C59.6598 23.0296 59.1851 22.8696 58.5238 22.8696C57.8838 22.8696 57.4144 23.0296 57.1158 23.3496C56.8171 23.6696 56.6678 24.187 56.6678 24.9016C56.6678 25.6056 56.8171 26.123 57.1158 26.4536C57.4144 26.7736 57.8838 26.9336 58.5238 26.9336ZM71.9533 39.1256C71.7079 39.1256 71.4946 39.035 71.3133 38.8536L68.1133 35.6536C67.9426 35.483 67.8573 35.2696 67.8573 35.0136V21.8936C67.8573 21.6483 67.9426 21.435 68.1133 21.2536L71.3133 18.0536C71.4946 17.883 71.7079 17.7976 71.9533 17.7976H78.3853C78.6413 17.7976 78.8546 17.883 79.0253 18.0536L82.2253 21.2536C82.4066 21.435 82.4973 21.6483 82.4973 21.8936V35.0136C82.4973 35.2696 82.4066 35.483 82.2253 35.6536L79.0253 38.8536C78.8546 39.035 78.6413 39.1256 78.3853 39.1256H71.9533ZM74.5453 33.7496H75.8093C76.2466 33.7496 76.4653 33.451 76.4653 32.8536V24.0696C76.4653 23.4616 76.2466 23.1576 75.8093 23.1576H74.5453C74.0973 23.1576 73.8733 23.4616 73.8733 24.0696V32.8536C73.8733 33.451 74.0973 33.7496 74.5453 33.7496ZM84.5488 41.7976C84.2821 41.7976 84.1488 41.6643 84.1488 41.3976V38.0216C84.1488 37.819 84.2021 37.659 84.3088 37.5416L86.6768 35.1736C86.8048 35.0563 86.8688 34.8856 86.8688 34.6616V18.1976C86.8688 17.931 87.0021 17.7976 87.2688 17.7976H92.5008C92.7674 17.7976 92.9008 17.931 92.9008 18.1976V37.7336C92.9008 37.8296 92.8901 37.9203 92.8688 38.0056C92.8474 38.0803 92.7941 38.1603 92.7088 38.2456L89.3968 41.5576C89.2368 41.7176 89.0768 41.7976 88.9168 41.7976H84.5488ZM95.851 39.1256C95.5843 39.1256 95.451 38.9923 95.451 38.7256V18.1976C95.451 17.931 95.5843 17.7976 95.851 17.7976H106.987C107.254 17.7976 107.387 17.931 107.387 18.1976V22.7576C107.387 23.0243 107.254 23.1576 106.987 23.1576H101.467V26.0376H106.731C106.998 26.0376 107.131 26.171 107.131 26.4376V30.4856C107.131 30.7523 106.998 30.8856 106.731 30.8856H101.467V33.7496H106.987C107.254 33.7496 107.387 33.883 107.387 34.1496V38.7256C107.387 38.9923 107.254 39.1256 106.987 39.1256H95.851ZM113.055 39.1256C112.788 39.1256 112.655 38.9923 112.655 38.7256V23.1576H110.351C110.084 23.1576 109.951 23.0243 109.951 22.7576V18.1976C109.951 17.931 110.084 17.7976 110.351 17.7976H121.007C121.274 17.7976 121.407 17.931 121.407 18.1976V22.7576C121.407 23.0243 121.274 23.1576 121.007 23.1576H118.687V38.7256C118.687 38.9923 118.554 39.1256 118.287 39.1256H113.055ZM128.047 39.1256C127.802 39.1256 127.588 39.035 127.407 38.8536L124.207 35.6536C124.036 35.483 123.951 35.2696 123.951 35.0136V21.8936C123.951 21.6483 124.036 21.435 124.207 21.2536L127.407 18.0536C127.588 17.883 127.802 17.7976 128.047 17.7976H134.479C134.735 17.7976 134.948 17.883 135.119 18.0536L138.319 21.2536C138.5 21.435 138.591 21.6483 138.591 21.8936V35.0136C138.591 35.2696 138.5 35.483 138.319 35.6536L135.119 38.8536C134.948 39.035 134.735 39.1256 134.479 39.1256H128.047ZM130.639 33.7496H131.903C132.34 33.7496 132.559 33.451 132.559 32.8536V24.0696C132.559 23.4616 132.34 23.1576 131.903 23.1576H130.639C130.191 23.1576 129.967 23.4616 129.967 24.0696V32.8536C129.967 33.451 130.191 33.7496 130.639 33.7496ZM154.536 39.1256L159.336 20.1176H163.48L158.68 39.1256H154.536ZM145.4 34.9336L146.264 31.2536L164.92 31.2056L164.344 34.9336H145.4ZM147.896 39.1256L152.648 20.1976H156.792L152.04 39.1256H147.896ZM146.728 28.0376L147.56 24.4056L166.264 24.3576L165.656 28.0376H146.728ZM169.647 39.1256C169.38 39.1256 169.247 38.9923 169.247 38.7256V23.1256L167.519 23.1576C167.252 23.1576 167.119 23.0243 167.119 22.7576V18.1976C167.119 17.931 167.252 17.7976 167.519 17.7976H174.863C175.13 17.7976 175.263 17.931 175.263 18.1976V38.7256C175.263 38.9923 175.13 39.1256 174.863 39.1256H169.647ZM178.786 39.1256C178.434 39.1256 178.183 39.0456 178.034 38.8856C177.895 38.7256 177.826 38.5016 177.826 38.2136V18.7256C177.826 18.4376 177.895 18.2136 178.034 18.0536C178.183 17.8936 178.434 17.8136 178.786 17.8136L190.978 17.7656C191.341 17.7656 191.591 17.8456 191.73 18.0056C191.879 18.1656 191.954 18.3896 191.954 18.6776V38.2136C191.954 38.5016 191.879 38.7256 191.73 38.8856C191.591 39.0456 191.341 39.1256 190.978 39.1256H178.786ZM183.698 34.1496H186.066V22.7416H183.698V34.1496Z"/>
</mask>
<path d="M35.976 39.1256C35.7093 39.1256 35.576 38.9923 35.576 38.7256V18.1976C35.576 17.931 35.7093 17.7976 35.976 17.7976H45.352C45.608 17.7976 45.8213 17.883 45.992 18.0536L49.192 21.2536C49.3733 21.435 49.464 21.6483 49.464 21.8936V28.6136C49.464 28.8696 49.3733 29.083 49.192 29.2536L45.992 32.4536C45.8213 32.635 45.608 32.7256 45.352 32.7256H41.592V38.7256C41.592 38.9923 41.4587 39.1256 41.192 39.1256H35.976ZM42.376 27.2376C43.0267 27.2376 43.5013 27.083 43.8 26.7736C44.0987 26.4536 44.248 25.947 44.248 25.2536C44.248 24.5603 44.0987 24.059 43.8 23.7496C43.5013 23.4296 43.0267 23.2696 42.376 23.2696C41.7253 23.2696 41.2507 23.4296 40.952 23.7496C40.664 24.059 40.52 24.5603 40.52 25.2536C40.52 25.947 40.664 26.4536 40.952 26.7736C41.2507 27.083 41.7253 27.2376 42.376 27.2376ZM51.8198 39.1256C51.5531 39.1256 51.4198 38.9923 51.4198 38.7256V18.1976C51.4198 17.931 51.5531 17.7976 51.8198 17.7976H61.0518C61.3184 17.7976 61.5318 17.867 61.6918 18.0056L65.3718 21.6536C65.4891 21.7603 65.5638 21.851 65.5958 21.9256C65.6278 22.0003 65.6438 22.123 65.6438 22.2936V26.6776C65.6438 26.8163 65.5691 26.9603 65.4198 27.1096L63.4358 29.0776L62.5238 29.8616L63.8998 31.7496L65.8038 35.6056C65.8464 35.7016 65.8784 35.7976 65.8998 35.8936C65.9211 35.979 65.9318 36.091 65.9318 36.2296V38.7256C65.9318 38.9923 65.7984 39.1256 65.5318 39.1256H60.8758C60.6411 39.1256 60.4811 39.019 60.3958 38.8056L58.0278 32.2776H57.3078V38.7256C57.3078 38.9923 57.1744 39.1256 56.9078 39.1256H51.8198ZM58.5238 26.9336C59.1851 26.9336 59.6598 26.7736 59.9478 26.4536C60.2464 26.123 60.3958 25.6056 60.3958 24.9016C60.3958 24.187 60.2464 23.6696 59.9478 23.3496C59.6598 23.0296 59.1851 22.8696 58.5238 22.8696C57.8838 22.8696 57.4144 23.0296 57.1158 23.3496C56.8171 23.6696 56.6678 24.187 56.6678 24.9016C56.6678 25.6056 56.8171 26.123 57.1158 26.4536C57.4144 26.7736 57.8838 26.9336 58.5238 26.9336ZM71.9533 39.1256C71.7079 39.1256 71.4946 39.035 71.3133 38.8536L68.1133 35.6536C67.9426 35.483 67.8573 35.2696 67.8573 35.0136V21.8936C67.8573 21.6483 67.9426 21.435 68.1133 21.2536L71.3133 18.0536C71.4946 17.883 71.7079 17.7976 71.9533 17.7976H78.3853C78.6413 17.7976 78.8546 17.883 79.0253 18.0536L82.2253 21.2536C82.4066 21.435 82.4973 21.6483 82.4973 21.8936V35.0136C82.4973 35.2696 82.4066 35.483 82.2253 35.6536L79.0253 38.8536C78.8546 39.035 78.6413 39.1256 78.3853 39.1256H71.9533ZM74.5453 33.7496H75.8093C76.2466 33.7496 76.4653 33.451 76.4653 32.8536V24.0696C76.4653 23.4616 76.2466 23.1576 75.8093 23.1576H74.5453C74.0973 23.1576 73.8733 23.4616 73.8733 24.0696V32.8536C73.8733 33.451 74.0973 33.7496 74.5453 33.7496ZM84.5488 41.7976C84.2821 41.7976 84.1488 41.6643 84.1488 41.3976V38.0216C84.1488 37.819 84.2021 37.659 84.3088 37.5416L86.6768 35.1736C86.8048 35.0563 86.8688 34.8856 86.8688 34.6616V18.1976C86.8688 17.931 87.0021 17.7976 87.2688 17.7976H92.5008C92.7674 17.7976 92.9008 17.931 92.9008 18.1976V37.7336C92.9008 37.8296 92.8901 37.9203 92.8688 38.0056C92.8474 38.0803 92.7941 38.1603 92.7088 38.2456L89.3968 41.5576C89.2368 41.7176 89.0768 41.7976 88.9168 41.7976H84.5488ZM95.851 39.1256C95.5843 39.1256 95.451 38.9923 95.451 38.7256V18.1976C95.451 17.931 95.5843 17.7976 95.851 17.7976H106.987C107.254 17.7976 107.387 17.931 107.387 18.1976V22.7576C107.387 23.0243 107.254 23.1576 106.987 23.1576H101.467V26.0376H106.731C106.998 26.0376 107.131 26.171 107.131 26.4376V30.4856C107.131 30.7523 106.998 30.8856 106.731 30.8856H101.467V33.7496H106.987C107.254 33.7496 107.387 33.883 107.387 34.1496V38.7256C107.387 38.9923 107.254 39.1256 106.987 39.1256H95.851ZM113.055 39.1256C112.788 39.1256 112.655 38.9923 112.655 38.7256V23.1576H110.351C110.084 23.1576 109.951 23.0243 109.951 22.7576V18.1976C109.951 17.931 110.084 17.7976 110.351 17.7976H121.007C121.274 17.7976 121.407 17.931 121.407 18.1976V22.7576C121.407 23.0243 121.274 23.1576 121.007 23.1576H118.687V38.7256C118.687 38.9923 118.554 39.1256 118.287 39.1256H113.055ZM128.047 39.1256C127.802 39.1256 127.588 39.035 127.407 38.8536L124.207 35.6536C124.036 35.483 123.951 35.2696 123.951 35.0136V21.8936C123.951 21.6483 124.036 21.435 124.207 21.2536L127.407 18.0536C127.588 17.883 127.802 17.7976 128.047 17.7976H134.479C134.735 17.7976 134.948 17.883 135.119 18.0536L138.319 21.2536C138.5 21.435 138.591 21.6483 138.591 21.8936V35.0136C138.591 35.2696 138.5 35.483 138.319 35.6536L135.119 38.8536C134.948 39.035 134.735 39.1256 134.479 39.1256H128.047ZM130.639 33.7496H131.903C132.34 33.7496 132.559 33.451 132.559 32.8536V24.0696C132.559 23.4616 132.34 23.1576 131.903 23.1576H130.639C130.191 23.1576 129.967 23.4616 129.967 24.0696V32.8536C129.967 33.451 130.191 33.7496 130.639 33.7496ZM154.536 39.1256L159.336 20.1176H163.48L158.68 39.1256H154.536ZM145.4 34.9336L146.264 31.2536L164.92 31.2056L164.344 34.9336H145.4ZM147.896 39.1256L152.648 20.1976H156.792L152.04 39.1256H147.896ZM146.728 28.0376L147.56 24.4056L166.264 24.3576L165.656 28.0376H146.728ZM169.647 39.1256C169.38 39.1256 169.247 38.9923 169.247 38.7256V23.1256L167.519 23.1576C167.252 23.1576 167.119 23.0243 167.119 22.7576V18.1976C167.119 17.931 167.252 17.7976 167.519 17.7976H174.863C175.13 17.7976 175.263 17.931 175.263 18.1976V38.7256C175.263 38.9923 175.13 39.1256 174.863 39.1256H169.647ZM178.786 39.1256C178.434 39.1256 178.183 39.0456 178.034 38.8856C177.895 38.7256 177.826 38.5016 177.826 38.2136V18.7256C177.826 18.4376 177.895 18.2136 178.034 18.0536C178.183 17.8936 178.434 17.8136 178.786 17.8136L190.978 17.7656C191.341 17.7656 191.591 17.8456 191.73 18.0056C191.879 18.1656 191.954 18.3896 191.954 18.6776V38.2136C191.954 38.5016 191.879 38.7256 191.73 38.8856C191.591 39.0456 191.341 39.1256 190.978 39.1256H178.786ZM183.698 34.1496H186.066V22.7416H183.698V34.1496Z" fill="white"/>
<path d="M45.992 18.0536L45.2849 18.7607L45.2849 18.7607L45.992 18.0536ZM49.192 21.2536L49.8991 20.5465V20.5465L49.192 21.2536ZM49.192 29.2536L48.5066 28.5254L48.4956 28.5358L48.4849 28.5465L49.192 29.2536ZM45.992 32.4536L45.2849 31.7465L45.2742 31.7572L45.2638 31.7683L45.992 32.4536ZM41.592 32.7256V31.7256H40.592V32.7256H41.592ZM43.8 26.7736L44.5194 27.4682L44.5253 27.4621L44.5311 27.4559L43.8 26.7736ZM43.8 23.7496L43.069 24.4319L43.0747 24.4381L43.0806 24.4442L43.8 23.7496ZM40.952 23.7496L40.2209 23.0673L40.2201 23.0682L40.952 23.7496ZM40.952 26.7736L40.2087 27.4426L40.2204 27.4556L40.2326 27.4682L40.952 26.7736ZM35.976 38.1256C35.9968 38.1256 36.1961 38.1315 36.3831 38.3185C36.5701 38.5055 36.576 38.7048 36.576 38.7256H34.576C34.576 39.0131 34.6486 39.4124 34.9689 39.7327C35.2892 40.0531 35.6885 40.1256 35.976 40.1256V38.1256ZM36.576 38.7256V18.1976H34.576V38.7256H36.576ZM36.576 18.1976C36.576 18.2184 36.5701 18.4177 36.3831 18.6047C36.1961 18.7917 35.9968 18.7976 35.976 18.7976V16.7976C35.6885 16.7976 35.2892 16.8702 34.9689 17.1905C34.6486 17.5109 34.576 17.9101 34.576 18.1976H36.576ZM35.976 18.7976H45.352V16.7976H35.976V18.7976ZM45.352 18.7976C45.3673 18.7976 45.3568 18.7998 45.3326 18.7901C45.3214 18.7856 45.3107 18.7799 45.3013 18.7737C45.2921 18.7675 45.2867 18.7625 45.2849 18.7607L46.6991 17.3465C46.3287 16.9761 45.8554 16.7976 45.352 16.7976V18.7976ZM45.2849 18.7607L48.4849 21.9607L49.8991 20.5465L46.6991 17.3465L45.2849 18.7607ZM48.4849 21.9607C48.4945 21.9704 48.4856 21.9641 48.4757 21.9408C48.4711 21.9301 48.4679 21.9193 48.466 21.9095C48.4641 21.8999 48.464 21.8942 48.464 21.8936H50.464C50.464 21.37 50.2585 20.9059 49.8991 20.5465L48.4849 21.9607ZM48.464 21.8936V28.6136H50.464V21.8936H48.464ZM48.464 28.6136C48.464 28.6213 48.4632 28.6039 48.4757 28.5745C48.4814 28.561 48.4883 28.5491 48.495 28.5396C48.5016 28.5303 48.5063 28.5257 48.5066 28.5254L49.8774 29.9818C50.2658 29.6163 50.464 29.1366 50.464 28.6136H48.464ZM48.4849 28.5465L45.2849 31.7465L46.6991 33.1607L49.8991 29.9607L48.4849 28.5465ZM45.2638 31.7683C45.2641 31.768 45.2687 31.7632 45.278 31.7566C45.2875 31.7499 45.2994 31.743 45.3129 31.7373C45.3422 31.7248 45.3597 31.7256 45.352 31.7256V33.7256C45.875 33.7256 46.3547 33.5274 46.7202 33.139L45.2638 31.7683ZM45.352 31.7256H41.592V33.7256H45.352V31.7256ZM40.592 32.7256V38.7256H42.592V32.7256H40.592ZM40.592 38.7256C40.592 38.7048 40.5979 38.5055 40.7849 38.3185C40.9719 38.1315 41.1712 38.1256 41.192 38.1256V40.1256C41.4795 40.1256 41.8788 40.0531 42.1991 39.7327C42.5195 39.4124 42.592 39.0131 42.592 38.7256H40.592ZM41.192 38.1256H35.976V40.1256H41.192V38.1256ZM42.376 28.2376C43.1601 28.2376 43.9543 28.0536 44.5194 27.4682L43.0806 26.079C43.0484 26.1124 42.8932 26.2376 42.376 26.2376V28.2376ZM44.5311 27.4559C45.0795 26.8683 45.248 26.0587 45.248 25.2536H43.248C43.248 25.8352 43.1178 26.039 43.069 26.0913L44.5311 27.4559ZM45.248 25.2536C45.248 24.4526 45.0812 23.6369 44.5194 23.055L43.0806 24.4442C43.1161 24.481 43.248 24.668 43.248 25.2536H45.248ZM44.5311 23.0673C43.9674 22.4634 43.1687 22.2696 42.376 22.2696V24.2696C42.8847 24.2696 43.0352 24.3958 43.069 24.4319L44.5311 23.0673ZM42.376 22.2696C41.5833 22.2696 40.7846 22.4634 40.2209 23.0673L41.6831 24.4319C41.7168 24.3958 41.8673 24.2696 42.376 24.2696V22.2696ZM40.2201 23.0682C39.6783 23.6502 39.52 24.46 39.52 25.2536H41.52C41.52 24.6606 41.6497 24.4677 41.6839 24.431L40.2201 23.0682ZM39.52 25.2536C39.52 26.0515 39.68 26.8552 40.2087 27.4426L41.6953 26.1047C41.648 26.0521 41.52 25.8425 41.52 25.2536H39.52ZM40.2326 27.4682C40.7978 28.0536 41.5919 28.2376 42.376 28.2376V26.2376C41.8588 26.2376 41.7036 26.1124 41.6714 26.079L40.2326 27.4682ZM61.6918 18.0056L62.3958 17.2954L62.372 17.2719L62.3467 17.2499L61.6918 18.0056ZM65.3718 21.6536L64.6677 22.3638L64.6831 22.379L64.6991 22.3936L65.3718 21.6536ZM65.5958 21.9256L64.6766 22.3195L64.6766 22.3195L65.5958 21.9256ZM65.4198 27.1096L66.124 27.8196L66.1269 27.8167L65.4198 27.1096ZM63.4358 29.0776L64.0876 29.8359L64.1147 29.8127L64.14 29.7876L63.4358 29.0776ZM62.5238 29.8616L61.8719 29.1033L61.1721 29.7049L61.7156 30.4506L62.5238 29.8616ZM63.8998 31.7496L64.7964 31.3069L64.7584 31.23L64.7079 31.1606L63.8998 31.7496ZM65.8038 35.6056L66.7176 35.1995L66.7094 35.181L66.7004 35.1629L65.8038 35.6056ZM65.8998 35.8936L64.9236 36.1106L64.9264 36.1234L64.9296 36.1362L65.8998 35.8936ZM60.3958 38.8056L59.4557 39.1466L59.4612 39.1619L59.4673 39.177L60.3958 38.8056ZM58.0278 32.2776L58.9678 31.9366L58.7288 31.2776H58.0278V32.2776ZM57.3078 32.2776V31.2776H56.3078V32.2776H57.3078ZM59.9478 26.4536L59.2057 25.7833L59.2045 25.7847L59.9478 26.4536ZM59.9478 23.3496L59.2045 24.0186L59.2105 24.0253L59.2167 24.0319L59.9478 23.3496ZM57.1158 23.3496L56.3847 22.6673L57.1158 23.3496ZM57.1158 26.4536L56.3737 27.1239L56.3791 27.13L56.3847 27.1359L57.1158 26.4536ZM51.8198 38.1256C51.8406 38.1256 52.0398 38.1315 52.2269 38.3185C52.4139 38.5055 52.4198 38.7048 52.4198 38.7256H50.4198C50.4198 39.0131 50.4923 39.4124 50.8126 39.7327C51.133 40.0531 51.5323 40.1256 51.8198 40.1256V38.1256ZM52.4198 38.7256V18.1976H50.4198V38.7256H52.4198ZM52.4198 18.1976C52.4198 18.2184 52.4139 18.4177 52.2269 18.6047C52.0398 18.7917 51.8406 18.7976 51.8198 18.7976V16.7976C51.5323 16.7976 51.133 16.8702 50.8126 17.1905C50.4923 17.5109 50.4198 17.9101 50.4198 18.1976H52.4198ZM51.8198 18.7976H61.0518V16.7976H51.8198V18.7976ZM61.0518 18.7976C61.0994 18.7976 61.1126 18.8039 61.1027 18.8007C61.0975 18.799 61.0877 18.7952 61.0751 18.7882C61.0623 18.7811 61.0492 18.772 61.0368 18.7613L62.3467 17.2499C61.9615 16.9161 61.4946 16.7976 61.0518 16.7976V18.7976ZM60.9877 18.7158L64.6677 22.3638L66.0758 20.9434L62.3958 17.2954L60.9877 18.7158ZM64.6991 22.3936C64.7155 22.4085 64.7272 22.4199 64.735 22.428C64.743 22.4361 64.7454 22.4392 64.7438 22.4373C64.7425 22.4357 64.7346 22.4261 64.7235 22.4087C64.7125 22.3918 64.6947 22.3618 64.6766 22.3195L66.5149 21.5317C66.3949 21.2518 66.1858 21.0422 66.0444 20.9137L64.6991 22.3936ZM64.6766 22.3195C64.6671 22.2974 64.6603 22.2783 64.6554 22.2633C64.6506 22.2482 64.6473 22.2359 64.6451 22.227C64.6409 22.2097 64.6399 22.2008 64.6402 22.203C64.6404 22.2047 64.6414 22.213 64.6422 22.2291C64.6431 22.245 64.6438 22.2663 64.6438 22.2936H66.6438C66.6438 22.104 66.6323 21.8057 66.5149 21.5317L64.6766 22.3195ZM64.6438 22.2936V26.6776H66.6438V22.2936H64.6438ZM64.6438 26.6776C64.6438 26.5616 64.6761 26.4754 64.7 26.4293C64.7217 26.3876 64.7354 26.3797 64.7127 26.4025L66.1269 27.8167C66.3674 27.5762 66.6438 27.1922 66.6438 26.6776H64.6438ZM64.7155 26.3997L62.7315 28.3677L64.14 29.7876L66.124 27.8196L64.7155 26.3997ZM62.7839 28.3193L61.8719 29.1033L63.1756 30.6199L64.0876 29.8359L62.7839 28.3193ZM61.7156 30.4506L63.0916 32.3386L64.7079 31.1606L63.3319 29.2726L61.7156 30.4506ZM63.0031 32.1924L64.9071 36.0484L66.7004 35.1629L64.7964 31.3069L63.0031 32.1924ZM64.8899 36.0118C64.9074 36.051 64.9176 36.0838 64.9236 36.1106L66.8759 35.6767C66.8392 35.5115 66.7854 35.3522 66.7176 35.1995L64.8899 36.0118ZM64.9296 36.1362C64.9253 36.1191 64.9264 36.1172 64.9283 36.1364C64.93 36.1547 64.9318 36.185 64.9318 36.2296H66.9318C66.9318 36.0503 66.919 35.8476 66.8699 35.6511L64.9296 36.1362ZM64.9318 36.2296V38.7256H66.9318V36.2296H64.9318ZM64.9318 38.7256C64.9318 38.7048 64.9376 38.5055 65.1246 38.3185C65.3117 38.1315 65.5109 38.1256 65.5318 38.1256V40.1256C65.8192 40.1256 66.2185 40.0531 66.5389 39.7327C66.8592 39.4124 66.9318 39.0131 66.9318 38.7256H64.9318ZM65.5318 38.1256H60.8758V40.1256H65.5318V38.1256ZM60.8758 38.1256C60.9119 38.1256 61.0171 38.1353 61.1345 38.2136C61.2534 38.2929 61.3067 38.3904 61.3242 38.4342L59.4673 39.177C59.5701 39.4342 59.7461 39.6917 60.0251 39.8777C60.3024 40.0626 60.6049 40.1256 60.8758 40.1256V38.1256ZM61.3358 38.4646L58.9678 31.9366L57.0877 32.6186L59.4557 39.1466L61.3358 38.4646ZM58.0278 31.2776H57.3078V33.2776H58.0278V31.2776ZM56.3078 32.2776V38.7256H58.3078V32.2776H56.3078ZM56.3078 38.7256C56.3078 38.7048 56.3136 38.5055 56.5006 38.3185C56.6877 38.1315 56.8869 38.1256 56.9078 38.1256V40.1256C57.1952 40.1256 57.5945 40.0531 57.9149 39.7327C58.2352 39.4124 58.3078 39.0131 58.3078 38.7256H56.3078ZM56.9078 38.1256H51.8198V40.1256H56.9078V38.1256ZM58.5238 27.9336C59.3173 27.9336 60.1315 27.7443 60.6911 27.1226L59.2045 25.7847C59.188 25.803 59.0528 25.9336 58.5238 25.9336V27.9336ZM60.6899 27.1239C61.2278 26.5283 61.3958 25.7164 61.3958 24.9016H59.3958C59.3958 25.4949 59.2651 25.7176 59.2057 25.7833L60.6899 27.1239ZM61.3958 24.9016C61.3958 24.085 61.2315 23.2594 60.6788 22.6673L59.2167 24.0319C59.2614 24.0798 59.3958 24.2889 59.3958 24.9016H61.3958ZM60.691 22.6807C60.1315 22.059 59.3173 21.8696 58.5238 21.8696V23.8696C59.0528 23.8696 59.188 24.0003 59.2045 24.0186L60.691 22.6807ZM58.5238 21.8696C57.7358 21.8696 56.9456 22.0664 56.3847 22.6673L57.8468 24.0319C57.8833 23.9929 58.0317 23.8696 58.5238 23.8696V21.8696ZM56.3847 22.6673C55.832 23.2594 55.6678 24.085 55.6678 24.9016H57.6678C57.6678 24.2889 57.8021 24.0798 57.8468 24.0319L56.3847 22.6673ZM55.6678 24.9016C55.6678 25.7164 55.8357 26.5283 56.3737 27.1239L57.8579 25.7833C57.7985 25.7176 57.6678 25.4949 57.6678 24.9016H55.6678ZM56.3847 27.1359C56.9456 27.7369 57.7358 27.9336 58.5238 27.9336V25.9336C58.0317 25.9336 57.8833 25.8104 57.8468 25.7713L56.3847 27.1359ZM71.3133 38.8536L70.6061 39.5607L71.3133 38.8536ZM68.1133 35.6536L67.4061 36.3607L68.1133 35.6536ZM68.1133 21.2536L67.4061 20.5465L67.3954 20.5572L67.3851 20.5683L68.1133 21.2536ZM71.3133 18.0536L70.6279 17.3254L70.6169 17.3358L70.6061 17.3465L71.3133 18.0536ZM79.0253 18.0536L78.3181 18.7607L79.0253 18.0536ZM82.2253 21.2536L82.9324 20.5465V20.5465L82.2253 21.2536ZM82.2253 35.6536L81.5399 34.9254L81.5289 34.9358L81.5182 34.9465L82.2253 35.6536ZM79.0253 38.8536L78.3181 38.1465L78.3074 38.1572L78.2971 38.1683L79.0253 38.8536ZM71.9533 38.1256C71.9538 38.1256 71.9596 38.1257 71.9692 38.1276C71.9789 38.1295 71.9897 38.1328 72.0004 38.1373C72.0237 38.1472 72.03 38.1562 72.0204 38.1465L70.6061 39.5607C70.9656 39.9201 71.4296 40.1256 71.9533 40.1256V38.1256ZM72.0204 38.1465L68.8204 34.9465L67.4061 36.3607L70.6061 39.5607L72.0204 38.1465ZM68.8204 34.9465C68.8221 34.9483 68.8271 34.9537 68.8333 34.9629C68.8395 34.9723 68.8452 34.983 68.8497 34.9942C68.8594 35.0184 68.8573 35.0289 68.8573 35.0136H66.8573C66.8573 35.517 67.0357 35.9903 67.4061 36.3607L68.8204 34.9465ZM68.8573 35.0136V21.8936H66.8573V35.0136H68.8573ZM68.8573 21.8936C68.8573 21.8905 68.8575 21.8925 68.8564 21.8985C68.8552 21.9047 68.8531 21.9125 68.8497 21.921C68.8464 21.9295 68.8428 21.9359 68.8402 21.9398C68.8378 21.9436 68.8375 21.9432 68.8415 21.939L67.3851 20.5683C67.0427 20.932 66.8573 21.3893 66.8573 21.8936H68.8573ZM68.8204 21.9607L72.0204 18.7607L70.6061 17.3465L67.4061 20.5465L68.8204 21.9607ZM71.9986 18.7818C72.0028 18.7778 72.0032 18.7781 71.9994 18.7806C71.9955 18.7831 71.9891 18.7867 71.9806 18.7901C71.9722 18.7935 71.9643 18.7956 71.9582 18.7968C71.9522 18.7979 71.9501 18.7976 71.9533 18.7976V16.7976C71.449 16.7976 70.9916 16.9831 70.6279 17.3254L71.9986 18.7818ZM71.9533 18.7976H78.3853V16.7976H71.9533V18.7976ZM78.3853 18.7976C78.4005 18.7976 78.3901 18.7998 78.3659 18.7901C78.3546 18.7856 78.3439 18.7799 78.3346 18.7737C78.3253 18.7675 78.3199 18.7625 78.3181 18.7607L79.7324 17.3465C79.3619 16.9761 78.8886 16.7976 78.3853 16.7976V18.7976ZM78.3181 18.7607L81.5182 21.9607L82.9324 20.5465L79.7324 17.3465L78.3181 18.7607ZM81.5182 21.9607C81.5278 21.9704 81.5188 21.9641 81.5089 21.9408C81.5044 21.9301 81.5012 21.9193 81.4992 21.9095C81.4973 21.8999 81.4973 21.8942 81.4973 21.8936H83.4973C83.4973 21.37 83.2918 20.9059 82.9324 20.5465L81.5182 21.9607ZM81.4973 21.8936V35.0136H83.4973V21.8936H81.4973ZM81.4973 35.0136C81.4973 35.0213 81.4964 35.0039 81.5089 34.9745C81.5147 34.961 81.5215 34.9491 81.5282 34.9396C81.5348 34.9303 81.5396 34.9257 81.5399 34.9254L82.9106 36.3818C83.299 36.0163 83.4973 35.5366 83.4973 35.0136H81.4973ZM81.5182 34.9465L78.3181 38.1465L79.7324 39.5607L82.9324 36.3607L81.5182 34.9465ZM78.2971 38.1683C78.2973 38.168 78.3019 38.1632 78.3112 38.1566C78.3207 38.1499 78.3326 38.143 78.3461 38.1373C78.3755 38.1248 78.3929 38.1256 78.3853 38.1256V40.1256C78.9082 40.1256 79.3879 39.9274 79.7535 39.539L78.2971 38.1683ZM78.3853 38.1256H71.9533V40.1256H78.3853V38.1256ZM74.5453 34.7496H75.8093V32.7496H74.5453V34.7496ZM75.8093 34.7496C76.2811 34.7496 76.7748 34.5717 77.1081 34.1164C77.3989 33.7191 77.4653 33.2448 77.4653 32.8536H75.4653C75.4653 32.9452 75.4566 32.993 75.4528 33.0085C75.4492 33.0233 75.455 32.9887 75.4944 32.9349C75.5382 32.8751 75.6035 32.8192 75.6819 32.7835C75.7547 32.7504 75.8055 32.7496 75.8093 32.7496V34.7496ZM77.4653 32.8536V24.0696H75.4653V32.8536H77.4653ZM77.4653 24.0696C77.4653 23.6758 77.3998 23.2004 77.1131 22.8017C76.7825 22.3421 76.288 22.1576 75.8093 22.1576V24.1576C75.8033 24.1576 75.7502 24.1564 75.6758 24.1219C75.596 24.0849 75.5315 24.028 75.4894 23.9696C75.4518 23.9172 75.4474 23.8853 75.4518 23.9038C75.4564 23.9228 75.4653 23.9743 75.4653 24.0696H77.4653ZM75.8093 22.1576H74.5453V24.1576H75.8093V22.1576ZM74.5453 22.1576C74.0705 22.1576 73.5732 22.3351 73.2362 22.7924C72.9412 23.1927 72.8733 23.6722 72.8733 24.0696H74.8733C74.8733 23.9758 74.8822 23.9261 74.8864 23.9091C74.8904 23.893 74.885 23.9263 74.8463 23.9788C74.8033 24.0372 74.7393 24.0914 74.6634 24.1257C74.5932 24.1575 74.5455 24.1576 74.5453 24.1576V22.1576ZM72.8733 24.0696V32.8536H74.8733V24.0696H72.8733ZM72.8733 32.8536C72.8733 33.2484 72.9422 33.7269 73.2413 34.1256C73.5809 34.5785 74.0773 34.7496 74.5453 34.7496V32.7496C74.5433 32.7496 74.5888 32.7493 74.6574 32.7798C74.7318 32.8129 74.7965 32.866 74.8413 32.9256C74.8818 32.9796 74.8885 33.0155 74.8854 33.0031C74.882 32.9896 74.8733 32.9437 74.8733 32.8536H72.8733ZM84.3088 37.5416L83.6016 36.8345L83.5848 36.8513L83.5688 36.8689L84.3088 37.5416ZM86.6768 35.1736L86.001 34.4365L85.985 34.4512L85.9697 34.4665L86.6768 35.1736ZM92.8688 38.0056L93.8303 38.2803L93.8349 38.2643L93.8389 38.2482L92.8688 38.0056ZM92.7088 38.2456L92.0016 37.5385L92.7088 38.2456ZM89.3968 41.5576L90.1039 42.2647L89.3968 41.5576ZM84.5488 40.7976C84.5696 40.7976 84.7689 40.8035 84.9559 40.9905C85.1429 41.1775 85.1488 41.3768 85.1488 41.3976H83.1488C83.1488 41.6851 83.2213 42.0844 83.5416 42.4047C83.862 42.7251 84.2613 42.7976 84.5488 42.7976V40.7976ZM85.1488 41.3976V38.0216H83.1488V41.3976H85.1488ZM85.1488 38.0216C85.1488 38.0068 85.1508 38.0257 85.1374 38.0658C85.1229 38.1094 85.0949 38.1635 85.0487 38.2143L83.5688 36.8689C83.2522 37.2172 83.1488 37.6417 83.1488 38.0216H85.1488ZM85.0159 38.2487L87.3839 35.8807L85.9697 34.4665L83.6016 36.8345L85.0159 38.2487ZM87.3525 35.9108C87.7431 35.5527 87.8688 35.0798 87.8688 34.6616H85.8688C85.8688 34.6802 85.8659 34.6559 85.8844 34.6065C85.9049 34.552 85.9432 34.4895 86.001 34.4365L87.3525 35.9108ZM87.8688 34.6616V18.1976H85.8688V34.6616H87.8688ZM87.8688 18.1976C87.8688 18.2184 87.8629 18.4177 87.6759 18.6047C87.4888 18.7917 87.2896 18.7976 87.2688 18.7976V16.7976C86.9813 16.7976 86.582 16.8702 86.2617 17.1905C85.9413 17.5109 85.8688 17.9101 85.8688 18.1976H87.8688ZM87.2688 18.7976H92.5008V16.7976H87.2688V18.7976ZM92.5008 18.7976C92.4799 18.7976 92.2807 18.7917 92.0937 18.6047C91.9066 18.4177 91.9008 18.2184 91.9008 18.1976H93.9008C93.9008 17.9101 93.8282 17.5109 93.5079 17.1905C93.1875 16.8702 92.7882 16.7976 92.5008 16.7976V18.7976ZM91.9008 18.1976V37.7336H93.9008V18.1976H91.9008ZM91.9008 37.7336C91.9008 37.7552 91.8984 37.7639 91.8986 37.7631L93.8389 38.2482C93.8818 38.0766 93.9008 37.904 93.9008 37.7336H91.9008ZM91.9072 37.7309C91.9308 37.6484 91.9631 37.5933 91.9807 37.5669C91.9984 37.5403 92.009 37.5312 92.0016 37.5385L93.4159 38.9527C93.5608 38.8078 93.7433 38.5847 93.8303 38.2803L91.9072 37.7309ZM92.0016 37.5385L88.6897 40.8505L90.1039 42.2647L93.4159 38.9527L92.0016 37.5385ZM88.6897 40.8505C88.6665 40.8737 88.6718 40.8621 88.7095 40.8432C88.7518 40.8221 88.824 40.7976 88.9168 40.7976V42.7976C89.4355 42.7976 89.8349 42.5337 90.1039 42.2647L88.6897 40.8505ZM88.9168 40.7976H84.5488V42.7976H88.9168V40.7976ZM101.467 23.1576V22.1576H100.467V23.1576H101.467ZM101.467 26.0376H100.467V27.0376H101.467V26.0376ZM101.467 30.8856V29.8856H100.467V30.8856H101.467ZM101.467 33.7496H100.467V34.7496H101.467V33.7496ZM95.851 38.1256C95.8718 38.1256 96.0711 38.1315 96.2581 38.3185C96.4451 38.5055 96.451 38.7048 96.451 38.7256H94.451C94.451 39.0131 94.5236 39.4124 94.8439 39.7327C95.1642 40.0531 95.5635 40.1256 95.851 40.1256V38.1256ZM96.451 38.7256V18.1976H94.451V38.7256H96.451ZM96.451 18.1976C96.451 18.2184 96.4451 18.4177 96.2581 18.6047C96.0711 18.7917 95.8718 18.7976 95.851 18.7976V16.7976C95.5635 16.7976 95.1642 16.8702 94.8439 17.1905C94.5236 17.5109 94.451 17.9101 94.451 18.1976H96.451ZM95.851 18.7976H106.987V16.7976H95.851V18.7976ZM106.987 18.7976C106.966 18.7976 106.767 18.7917 106.58 18.6047C106.393 18.4177 106.387 18.2184 106.387 18.1976H108.387C108.387 17.9101 108.314 17.5109 107.994 17.1905C107.674 16.8702 107.274 16.7976 106.987 16.7976V18.7976ZM106.387 18.1976V22.7576H108.387V18.1976H106.387ZM106.387 22.7576C106.387 22.7368 106.393 22.5375 106.58 22.3505C106.767 22.1635 106.966 22.1576 106.987 22.1576V24.1576C107.274 24.1576 107.674 24.0851 107.994 23.7647C108.314 23.4444 108.387 23.0451 108.387 22.7576H106.387ZM106.987 22.1576H101.467V24.1576H106.987V22.1576ZM100.467 23.1576V26.0376H102.467V23.1576H100.467ZM101.467 27.0376H106.731V25.0376H101.467V27.0376ZM106.731 27.0376C106.71 27.0376 106.511 27.0317 106.324 26.8447C106.137 26.6577 106.131 26.4584 106.131 26.4376H108.131C108.131 26.1501 108.058 25.7509 107.738 25.4305C107.418 25.1102 107.018 25.0376 106.731 25.0376V27.0376ZM106.131 26.4376V30.4856H108.131V26.4376H106.131ZM106.131 30.4856C106.131 30.4648 106.137 30.2655 106.324 30.0785C106.511 29.8915 106.71 29.8856 106.731 29.8856V31.8856C107.018 31.8856 107.418 31.8131 107.738 31.4927C108.058 31.1724 108.131 30.7731 108.131 30.4856H106.131ZM106.731 29.8856H101.467V31.8856H106.731V29.8856ZM100.467 30.8856V33.7496H102.467V30.8856H100.467ZM101.467 34.7496H106.987V32.7496H101.467V34.7496ZM106.987 34.7496C106.966 34.7496 106.767 34.7437 106.58 34.5567C106.393 34.3697 106.387 34.1704 106.387 34.1496H108.387C108.387 33.8621 108.314 33.4629 107.994 33.1425C107.674 32.8222 107.274 32.7496 106.987 32.7496V34.7496ZM106.387 34.1496V38.7256H108.387V34.1496H106.387ZM106.387 38.7256C106.387 38.7048 106.393 38.5055 106.58 38.3185C106.767 38.1315 106.966 38.1256 106.987 38.1256V40.1256C107.274 40.1256 107.674 40.0531 107.994 39.7327C108.314 39.4124 108.387 39.0131 108.387 38.7256H106.387ZM106.987 38.1256H95.851V40.1256H106.987V38.1256ZM112.655 23.1576H113.655V22.1576H112.655V23.1576ZM118.687 23.1576V22.1576H117.687V23.1576H118.687ZM113.055 38.1256C113.076 38.1256 113.275 38.1315 113.462 38.3185C113.649 38.5055 113.655 38.7048 113.655 38.7256H111.655C111.655 39.0131 111.728 39.4124 112.048 39.7327C112.368 40.0531 112.768 40.1256 113.055 40.1256V38.1256ZM113.655 38.7256V23.1576H111.655V38.7256H113.655ZM112.655 22.1576H110.351V24.1576H112.655V22.1576ZM110.351 22.1576C110.372 22.1576 110.571 22.1635 110.758 22.3505C110.945 22.5375 110.951 22.7368 110.951 22.7576H108.951C108.951 23.0451 109.024 23.4444 109.344 23.7647C109.664 24.0851 110.064 24.1576 110.351 24.1576V22.1576ZM110.951 22.7576V18.1976H108.951V22.7576H110.951ZM110.951 18.1976C110.951 18.2184 110.945 18.4177 110.758 18.6047C110.571 18.7917 110.372 18.7976 110.351 18.7976V16.7976C110.064 16.7976 109.664 16.8702 109.344 17.1905C109.024 17.5109 108.951 17.9101 108.951 18.1976H110.951ZM110.351 18.7976H121.007V16.7976H110.351V18.7976ZM121.007 18.7976C120.986 18.7976 120.787 18.7917 120.6 18.6047C120.413 18.4177 120.407 18.2184 120.407 18.1976H122.407C122.407 17.9101 122.334 17.5109 122.014 17.1905C121.694 16.8702 121.294 16.7976 121.007 16.7976V18.7976ZM120.407 18.1976V22.7576H122.407V18.1976H120.407ZM120.407 22.7576C120.407 22.7368 120.413 22.5375 120.6 22.3505C120.787 22.1635 120.986 22.1576 121.007 22.1576V24.1576C121.294 24.1576 121.694 24.0851 122.014 23.7647C122.334 23.4444 122.407 23.0451 122.407 22.7576H120.407ZM121.007 22.1576H118.687V24.1576H121.007V22.1576ZM117.687 23.1576V38.7256H119.687V23.1576H117.687ZM117.687 38.7256C117.687 38.7048 117.693 38.5055 117.88 38.3185C118.067 38.1315 118.266 38.1256 118.287 38.1256V40.1256C118.574 40.1256 118.974 40.0531 119.294 39.7327C119.614 39.4124 119.687 39.0131 119.687 38.7256H117.687ZM118.287 38.1256H113.055V40.1256H118.287V38.1256ZM127.407 38.8536L126.7 39.5607L127.407 38.8536ZM124.207 35.6536L123.5 36.3607L124.207 35.6536ZM124.207 21.2536L123.5 20.5465L123.489 20.5572L123.479 20.5683L124.207 21.2536ZM127.407 18.0536L126.722 17.3254L126.711 17.3358L126.7 17.3465L127.407 18.0536ZM135.119 18.0536L134.412 18.7607L135.119 18.0536ZM138.319 21.2536L139.026 20.5465V20.5465L138.319 21.2536ZM138.319 35.6536L137.634 34.9254L137.623 34.9358L137.612 34.9465L138.319 35.6536ZM135.119 38.8536L134.412 38.1465L134.401 38.1572L134.391 38.1683L135.119 38.8536ZM128.047 38.1256C128.048 38.1256 128.053 38.1257 128.063 38.1276C128.073 38.1295 128.083 38.1328 128.094 38.1373C128.117 38.1472 128.124 38.1562 128.114 38.1465L126.7 39.5607C127.059 39.9201 127.523 40.1256 128.047 40.1256V38.1256ZM128.114 38.1465L124.914 34.9465L123.5 36.3607L126.7 39.5607L128.114 38.1465ZM124.914 34.9465C124.916 34.9483 124.921 34.9537 124.927 34.9629C124.933 34.9723 124.939 34.983 124.943 34.9942C124.953 35.0184 124.951 35.0289 124.951 35.0136H122.951C122.951 35.517 123.129 35.9903 123.5 36.3607L124.914 34.9465ZM124.951 35.0136V21.8936H122.951V35.0136H124.951ZM124.951 21.8936C124.951 21.8905 124.951 21.8925 124.95 21.8985C124.949 21.9047 124.947 21.9125 124.943 21.921C124.94 21.9295 124.937 21.9359 124.934 21.9398C124.932 21.9436 124.931 21.9432 124.935 21.939L123.479 20.5683C123.136 20.932 122.951 21.3893 122.951 21.8936H124.951ZM124.914 21.9607L128.114 18.7607L126.7 17.3465L123.5 20.5465L124.914 21.9607ZM128.092 18.7818C128.097 18.7778 128.097 18.7781 128.093 18.7806C128.089 18.7831 128.083 18.7867 128.074 18.7901C128.066 18.7935 128.058 18.7956 128.052 18.7968C128.046 18.7979 128.044 18.7976 128.047 18.7976V16.7976C127.543 16.7976 127.085 16.9831 126.722 17.3254L128.092 18.7818ZM128.047 18.7976H134.479V16.7976H128.047V18.7976ZM134.479 18.7976C134.494 18.7976 134.484 18.7998 134.46 18.7901C134.448 18.7856 134.438 18.7799 134.428 18.7737C134.419 18.7675 134.414 18.7625 134.412 18.7607L135.826 17.3465C135.456 16.9761 134.982 16.7976 134.479 16.7976V18.7976ZM134.412 18.7607L137.612 21.9607L139.026 20.5465L135.826 17.3465L134.412 18.7607ZM137.612 21.9607C137.622 21.9704 137.613 21.9641 137.603 21.9408C137.598 21.9301 137.595 21.9193 137.593 21.9095C137.591 21.8999 137.591 21.8942 137.591 21.8936H139.591C139.591 21.37 139.386 20.9059 139.026 20.5465L137.612 21.9607ZM137.591 21.8936V35.0136H139.591V21.8936H137.591ZM137.591 35.0136C137.591 35.0213 137.59 35.0039 137.603 34.9745C137.608 34.961 137.615 34.9491 137.622 34.9396C137.629 34.9303 137.633 34.9257 137.634 34.9254L139.004 36.3818C139.393 36.0163 139.591 35.5366 139.591 35.0136H137.591ZM137.612 34.9465L134.412 38.1465L135.826 39.5607L139.026 36.3607L137.612 34.9465ZM134.391 38.1683C134.391 38.168 134.396 38.1632 134.405 38.1566C134.414 38.1499 134.426 38.143 134.44 38.1373C134.469 38.1248 134.487 38.1256 134.479 38.1256V40.1256C135.002 40.1256 135.482 39.9274 135.847 39.539L134.391 38.1683ZM134.479 38.1256H128.047V40.1256H134.479V38.1256ZM130.639 34.7496H131.903V32.7496H130.639V34.7496ZM131.903 34.7496C132.375 34.7496 132.869 34.5717 133.202 34.1164C133.493 33.7191 133.559 33.2448 133.559 32.8536H131.559C131.559 32.9452 131.55 32.993 131.547 33.0085C131.543 33.0233 131.549 32.9887 131.588 32.9349C131.632 32.8751 131.697 32.8192 131.776 32.7835C131.848 32.7504 131.899 32.7496 131.903 32.7496V34.7496ZM133.559 32.8536V24.0696H131.559V32.8536H133.559ZM133.559 24.0696C133.559 23.6758 133.494 23.2004 133.207 22.8017C132.876 22.3421 132.382 22.1576 131.903 22.1576V24.1576C131.897 24.1576 131.844 24.1564 131.77 24.1219C131.69 24.0849 131.625 24.028 131.583 23.9696C131.546 23.9172 131.541 23.8853 131.546 23.9038C131.55 23.9228 131.559 23.9743 131.559 24.0696H133.559ZM131.903 22.1576H130.639V24.1576H131.903V22.1576ZM130.639 22.1576C130.164 22.1576 129.667 22.3351 129.33 22.7924C129.035 23.1927 128.967 23.6722 128.967 24.0696H130.967C130.967 23.9758 130.976 23.9261 130.98 23.9091C130.984 23.893 130.979 23.9263 130.94 23.9788C130.897 24.0372 130.833 24.0914 130.757 24.1257C130.687 24.1575 130.639 24.1576 130.639 24.1576V22.1576ZM128.967 24.0696V32.8536H130.967V24.0696H128.967ZM128.967 32.8536C128.967 33.2484 129.036 33.7269 129.335 34.1256C129.675 34.5785 130.171 34.7496 130.639 34.7496V32.7496C130.637 32.7496 130.683 32.7493 130.751 32.7798C130.826 32.8129 130.89 32.866 130.935 32.9256C130.976 32.9796 130.982 33.0155 130.979 33.0031C130.976 32.9896 130.967 32.9437 130.967 32.8536H128.967ZM154.536 39.1256L153.567 38.8808L153.252 40.1256H154.536V39.1256ZM159.336 20.1176V19.1176H158.557L158.367 19.8728L159.336 20.1176ZM163.48 20.1176L164.45 20.3625L164.764 19.1176H163.48V20.1176ZM158.68 39.1256V40.1256H159.459L159.65 39.3705L158.68 39.1256ZM145.4 34.9336L144.427 34.7051L144.138 35.9336H145.4V34.9336ZM146.264 31.2536L146.262 30.2536L145.471 30.2557L145.291 31.0251L146.264 31.2536ZM164.92 31.2056L165.909 31.3583L166.087 30.2026L164.918 30.2056L164.92 31.2056ZM164.344 34.9336V35.9336H165.202L165.333 35.0863L164.344 34.9336ZM147.896 39.1256L146.926 38.8821L146.614 40.1256H147.896V39.1256ZM152.648 20.1976V19.1976H151.868L151.678 19.9541L152.648 20.1976ZM156.792 20.1976L157.762 20.4411L158.074 19.1976H156.792V20.1976ZM152.04 39.1256V40.1256H152.82L153.01 39.3691L152.04 39.1256ZM146.728 28.0376L145.754 27.8143L145.473 29.0376H146.728V28.0376ZM147.56 24.4056L147.558 23.4056L146.763 23.4077L146.586 24.1823L147.56 24.4056ZM166.264 24.3576L167.251 24.5206L167.444 23.3546L166.262 23.3576L166.264 24.3576ZM165.656 28.0376V29.0376H166.505L166.643 28.2006L165.656 28.0376ZM155.506 39.3705L160.306 20.3625L158.367 19.8728L153.567 38.8808L155.506 39.3705ZM159.336 21.1176H163.48V19.1176H159.336V21.1176ZM162.511 19.8728L157.711 38.8808L159.65 39.3705L164.45 20.3625L162.511 19.8728ZM158.68 38.1256H154.536V40.1256H158.68V38.1256ZM146.374 35.1622L147.238 31.4822L145.291 31.0251L144.427 34.7051L146.374 35.1622ZM146.267 32.2536L164.923 32.2056L164.918 30.2056L146.262 30.2536L146.267 32.2536ZM163.932 31.0529L163.356 34.7809L165.333 35.0863L165.909 31.3583L163.932 31.0529ZM164.344 33.9336H145.4V35.9336H164.344V33.9336ZM148.866 39.3691L153.618 20.4411L151.678 19.9541L146.926 38.8821L148.866 39.3691ZM152.648 21.1976H156.792V19.1976H152.648V21.1976ZM155.822 19.9541L151.07 38.8821L153.01 39.3691L157.762 20.4411L155.822 19.9541ZM152.04 38.1256H147.896V40.1256H152.04V38.1256ZM147.703 28.2609L148.535 24.6289L146.586 24.1823L145.754 27.8143L147.703 28.2609ZM147.563 25.4056L166.267 25.3576L166.262 23.3576L147.558 23.4056L147.563 25.4056ZM165.278 24.1946L164.67 27.8746L166.643 28.2006L167.251 24.5206L165.278 24.1946ZM165.656 27.0376H146.728V29.0376H165.656V27.0376ZM169.247 23.1256H170.247V22.1069L169.228 22.1258L169.247 23.1256ZM167.519 23.1576V24.1576H167.528L167.538 24.1574L167.519 23.1576ZM169.647 38.1256C169.668 38.1256 169.867 38.1315 170.054 38.3185C170.241 38.5055 170.247 38.7048 170.247 38.7256H168.247C168.247 39.0131 168.32 39.4124 168.64 39.7327C168.96 40.0531 169.36 40.1256 169.647 40.1256V38.1256ZM170.247 38.7256V23.1256H168.247V38.7256H170.247ZM169.228 22.1258L167.5 22.1578L167.538 24.1574L169.266 24.1255L169.228 22.1258ZM167.519 22.1576C167.54 22.1576 167.739 22.1635 167.926 22.3505C168.113 22.5375 168.119 22.7368 168.119 22.7576H166.119C166.119 23.0451 166.192 23.4444 166.512 23.7647C166.832 24.0851 167.232 24.1576 167.519 24.1576V22.1576ZM168.119 22.7576V18.1976H166.119V22.7576H168.119ZM168.119 18.1976C168.119 18.2184 168.113 18.4177 167.926 18.6047C167.739 18.7917 167.54 18.7976 167.519 18.7976V16.7976C167.232 16.7976 166.832 16.8702 166.512 17.1905C166.192 17.5109 166.119 17.9101 166.119 18.1976H168.119ZM167.519 18.7976H174.863V16.7976H167.519V18.7976ZM174.863 18.7976C174.842 18.7976 174.643 18.7917 174.456 18.6047C174.269 18.4177 174.263 18.2184 174.263 18.1976H176.263C176.263 17.9101 176.19 17.5109 175.87 17.1905C175.55 16.8702 175.15 16.7976 174.863 16.7976V18.7976ZM174.263 18.1976V38.7256H176.263V18.1976H174.263ZM174.263 38.7256C174.263 38.7048 174.269 38.5055 174.456 38.3185C174.643 38.1315 174.842 38.1256 174.863 38.1256V40.1256C175.15 40.1256 175.55 40.0531 175.87 39.7327C176.19 39.4124 176.263 39.0131 176.263 38.7256H174.263ZM174.863 38.1256H169.647V40.1256H174.863V38.1256ZM178.034 38.8856L177.278 39.5406L177.29 39.5545L177.303 39.5679L178.034 38.8856ZM178.034 18.0536L177.303 17.3713L177.29 17.3848L177.278 17.3987L178.034 18.0536ZM178.786 17.8136V18.8136L178.79 18.8136L178.786 17.8136ZM190.978 17.7656V16.7656L190.974 16.7656L190.978 17.7656ZM191.73 18.0056L190.974 18.6606L190.986 18.6745L190.999 18.6879L191.73 18.0056ZM191.73 38.8856L190.999 38.2033L190.986 38.2168L190.974 38.2307L191.73 38.8856ZM183.698 34.1496H182.698V35.1496H183.698V34.1496ZM186.066 34.1496V35.1496H187.066V34.1496H186.066ZM186.066 22.7416H187.066V21.7416H186.066V22.7416ZM183.698 22.7416V21.7416H182.698V22.7416H183.698ZM178.786 38.1256C178.735 38.1256 178.698 38.1227 178.673 38.1193C178.647 38.1159 178.637 38.1125 178.638 38.113C178.64 38.1135 178.655 38.1187 178.68 38.1331C178.704 38.148 178.735 38.1708 178.765 38.2033L177.303 39.5679C177.73 40.0253 178.32 40.1256 178.786 40.1256V38.1256ZM178.79 38.2307C178.804 38.2473 178.815 38.2635 178.822 38.2773C178.83 38.291 178.833 38.3 178.833 38.3019C178.834 38.3046 178.826 38.2793 178.826 38.2136H176.826C176.826 38.6552 176.933 39.1423 177.278 39.5406L178.79 38.2307ZM178.826 38.2136V18.7256H176.826V38.2136H178.826ZM178.826 18.7256C178.826 18.6599 178.834 18.6346 178.833 18.6373C178.833 18.6393 178.83 18.6483 178.822 18.6619C178.815 18.6758 178.804 18.692 178.79 18.7086L177.278 17.3987C176.933 17.797 176.826 18.2841 176.826 18.7256H178.826ZM178.765 18.7359C178.735 18.7685 178.704 18.7913 178.68 18.8061C178.655 18.8205 178.64 18.8257 178.638 18.8263C178.637 18.8267 178.647 18.8233 178.673 18.8199C178.698 18.8165 178.735 18.8136 178.786 18.8136V16.8136C178.32 16.8136 177.73 16.914 177.303 17.3713L178.765 18.7359ZM178.79 18.8136L190.982 18.7656L190.974 16.7656L178.782 16.8136L178.79 18.8136ZM190.978 18.7656C191.033 18.7656 191.072 18.7687 191.1 18.7722C191.127 18.7758 191.137 18.7793 191.134 18.7783C191.127 18.7759 191.051 18.7495 190.974 18.6606L192.486 17.3507C192.058 16.8568 191.433 16.7656 190.978 16.7656V18.7656ZM190.999 18.6879C190.985 18.6727 190.973 18.6567 190.964 18.6415C190.955 18.6265 190.951 18.6151 190.949 18.6098C190.946 18.6003 190.954 18.6183 190.954 18.6776H192.954C192.954 18.2185 192.832 17.7209 192.461 17.3233L190.999 18.6879ZM190.954 18.6776V38.2136H192.954V18.6776H190.954ZM190.954 38.2136C190.954 38.2729 190.946 38.2909 190.949 38.2814C190.951 38.2761 190.955 38.2648 190.964 38.2498C190.973 38.2345 190.985 38.2185 190.999 38.2033L192.461 39.5679C192.832 39.1704 192.954 38.6727 192.954 38.2136H190.954ZM190.974 38.2307C191.051 38.1418 191.127 38.1153 191.134 38.113C191.137 38.112 191.127 38.1154 191.1 38.119C191.072 38.1226 191.033 38.1256 190.978 38.1256V40.1256C191.433 40.1256 192.058 40.0344 192.486 39.5406L190.974 38.2307ZM190.978 38.1256H178.786V40.1256H190.978V38.1256ZM183.698 35.1496H186.066V33.1496H183.698V35.1496ZM187.066 34.1496V22.7416H185.066V34.1496H187.066ZM186.066 21.7416H183.698V23.7416H186.066V21.7416ZM182.698 22.7416V34.1496H184.698V22.7416H182.698Z" fill="black" mask="url(#path-3-outside-1_322_1429)"/>
</g>
<defs>
<filter id="filter0_b_322_1429" x="31.5762" y="13.7656" width="164.378" height="32.032" filterUnits="userSpaceOnUse" color-interpolation-filters="sRGB">
<feFlood flood-opacity="0" result="BackgroundImageFix"/>
<feGaussianBlur in="BackgroundImageFix" stdDeviation="2"/>
<feComposite in2="SourceAlpha" operator="in" result="effect1_backgroundBlur_322_1429"/>
<feBlend mode="normal" in="SourceGraphic" in2="effect1_backgroundBlur_322_1429" result="shape"/>
</filter>
</defs>
</svg>
